<svg width="35" height="35" viewBox="0 0 35 35" fill="none" xmlns="http://www.w3.org/2000/svg">
<g clip-path="url(#clip0_36_389)">
<path d="M8.87525 34.8761C7.52147 34.861 6.18043 34.6127 4.91098 34.1422C3.98398 33.7995 3.14527 33.254 2.45618 32.5455C1.7458 31.8578 1.1995 31.0189 0.857843 30.0911C0.38766 28.8217 0.139719 27.4808 0.124902 26.1272C0.0209314 23.8769 0 23.2019 0 17.5C0 11.7981 0.0229902 11.1255 0.123873 8.87353C0.140488 7.52046 0.388734 6.18023 0.857843 4.91098C1.20116 3.98382 1.74669 3.14478 2.4548 2.4548C3.14304 1.74507 3.98215 1.19927 4.90995 0.857843C6.1794 0.38727 7.52044 0.13898 8.87422 0.123873C11.1252 0.0209314 11.8012 0 17.5 0C23.1988 0 23.8745 0.0229902 26.1265 0.123873C27.4799 0.140371 28.8205 0.388619 30.09 0.857843C31.0174 1.19972 31.8563 1.74533 32.5449 2.45446C33.2542 3.14322 33.8 3.98231 34.1422 4.90995C34.6128 6.17938 34.8613 7.52042 34.8765 8.87422C34.9794 11.1262 35.0003 11.8005 35.0003 17.5007C35.0003 23.2009 34.9794 23.8751 34.8765 26.1272C34.8601 27.4807 34.6118 28.8215 34.1422 30.0911C33.7869 31.0118 33.2429 31.8479 32.545 32.5456C31.8471 33.2433 31.0108 33.7872 30.09 34.1422C28.8206 34.6128 27.4796 34.8612 26.1258 34.8765C23.8758 34.9794 23.1995 35.0003 17.4993 35.0003C11.7991 35.0003 11.1249 34.9804 8.8749 34.8765" fill="url(#paint0_radial_36_389)"/>
<path d="M8.87525 34.8761C7.52147 34.861 6.18043 34.6127 4.91098 34.1422C3.98398 33.7995 3.14527 33.254 2.45618 32.5455C1.7458 31.8578 1.1995 31.0189 0.857843 30.0911C0.38766 28.8217 0.139719 27.4808 0.124902 26.1272C0.0209314 23.8769 0 23.2019 0 17.5C0 11.7981 0.0229902 11.1255 0.123873 8.87353C0.140488 7.52046 0.388734 6.18023 0.857843 4.91098C1.20116 3.98382 1.74669 3.14478 2.4548 2.4548C3.14304 1.74507 3.98215 1.19927 4.90995 0.857843C6.1794 0.38727 7.52044 0.13898 8.87422 0.123873C11.1252 0.0209314 11.8012 0 17.5 0C23.1988 0 23.8745 0.0229902 26.1265 0.123873C27.4799 0.140371 28.8205 0.388619 30.09 0.857843C31.0174 1.19972 31.8563 1.74533 32.5449 2.45446C33.2542 3.14322 33.8 3.98231 34.1422 4.90995C34.6128 6.17938 34.8613 7.52042 34.8765 8.87422C34.9794 11.1262 35.0003 11.8005 35.0003 17.5007C35.0003 23.2009 34.9794 23.8751 34.8765 26.1272C34.8601 27.4807 34.6118 28.8215 34.1422 30.0911C33.7869 31.0118 33.2429 31.8479 32.545 32.5456C31.8471 33.2433 31.0108 33.7872 30.09 34.1422C28.8206 34.6128 27.4796 34.8612 26.1258 34.8765C23.8758 34.9794 23.1995 35.0003 17.4993 35.0003C11.7991 35.0003 11.1249 34.9804 8.8749 34.8765" fill="url(#paint1_radial_36_389)"/>
<path d="M13.203 17.5746C13.203 16.7173 13.4573 15.8794 13.9336 15.1667C14.4099 14.4539 15.0869 13.8985 15.8789 13.5705C16.6709 13.2425 17.5424 13.1568 18.3831 13.3241C19.2239 13.4914 19.9961 13.9043 20.6022 14.5106C21.2083 15.1168 21.621 15.8891 21.7881 16.7299C21.9552 17.5707 21.8693 18.4421 21.5411 19.2341C21.213 20.026 20.6573 20.7028 19.9445 21.179C19.2317 21.6551 18.3937 21.9092 17.5364 21.9091C16.387 21.9089 15.2847 21.4521 14.472 20.6393C13.6594 19.8264 13.2029 18.724 13.203 17.5746ZM10.8597 17.5746C10.8597 18.8951 11.2513 20.186 11.9849 21.284C12.7186 22.382 13.7613 23.2377 14.9813 23.7431C16.2014 24.2484 17.5438 24.3807 18.839 24.123C20.1342 23.8654 21.3239 23.2295 22.2576 22.2957C23.1914 21.362 23.8273 20.1723 24.0849 18.8771C24.3425 17.582 24.2103 16.2395 23.705 15.0195C23.1996 13.7995 22.3438 12.7567 21.2458 12.023C20.1479 11.2894 18.857 10.8978 17.5364 10.8978C16.6596 10.8978 15.7914 11.0704 14.9813 11.4059C14.1712 11.7415 13.4352 12.2333 12.8151 12.8533C12.1951 13.4733 11.7033 14.2093 11.3678 15.0194C11.0323 15.8295 10.8596 16.6977 10.8597 17.5746ZM22.9172 10.6332C22.917 10.9418 23.0084 11.2435 23.1797 11.5002C23.3511 11.7568 23.5947 11.9569 23.8797 12.0751C24.1647 12.1934 24.4784 12.2244 24.7811 12.1643C25.0838 12.1043 25.3619 11.9558 25.5802 11.7377C25.7985 11.5196 25.9472 11.2416 26.0075 10.939C26.0679 10.6364 26.0371 10.3226 25.9192 10.0375C25.8012 9.75233 25.6013 9.50857 25.3448 9.33702C25.0883 9.16546 24.7867 9.07382 24.4781 9.07369C24.0645 9.07387 23.6678 9.23822 23.3753 9.53063C23.0827 9.82305 22.9182 10.2196 22.9179 10.6332M12.284 28.1586C11.4595 28.1496 10.6427 27.9987 9.86937 27.7126C9.30854 27.4964 8.79919 27.1652 8.37409 26.7403C7.949 26.3154 7.61759 25.8061 7.40119 25.2454C7.11493 24.4721 6.96404 23.6553 6.95511 22.8307C6.89197 21.4602 6.87962 21.0485 6.87962 17.5763C6.87962 14.1041 6.89335 13.6933 6.95511 12.3215C6.96512 11.4971 7.11598 10.6804 7.40119 9.90682C7.61734 9.34581 7.94865 8.83633 8.37377 8.41121C8.79888 7.9861 9.30837 7.65478 9.86937 7.43863C10.6427 7.15239 11.4595 7.00149 12.284 6.99256C13.6545 6.92942 14.0663 6.91707 17.5371 6.91707C21.008 6.91707 21.4201 6.93045 22.7919 6.9929C23.6163 7.00291 24.433 7.15377 25.2066 7.43898C25.7676 7.65515 26.2771 7.98647 26.7022 8.41158C27.1273 8.8367 27.4586 9.34617 27.6748 9.90716C27.961 10.6805 28.1119 11.4973 28.1208 12.3218C28.184 13.6944 28.1963 14.1041 28.1963 17.5766C28.1963 21.0492 28.1836 21.4596 28.1208 22.8314C28.1112 23.6559 27.9604 24.4726 27.6748 25.2461C27.4584 25.8068 27.127 26.316 26.7019 26.741C26.2768 27.1659 25.7674 27.4971 25.2066 27.7132C24.4333 27.9995 23.6164 28.1504 22.7919 28.1593C21.4214 28.2225 21.0097 28.2348 17.5371 28.2348C14.0646 28.2348 13.6542 28.2221 12.284 28.1593M12.1763 4.65133C11.0974 4.67255 10.03 4.87675 9.01942 5.25525C8.15558 5.58925 7.37106 6.10008 6.71616 6.75498C6.06126 7.40988 5.55043 8.1944 5.21643 9.05824C4.83798 10.0688 4.63378 11.1362 4.61252 12.2151C4.54835 13.6014 4.53394 14.0447 4.53394 17.5759C4.53394 21.1072 4.54869 21.5502 4.61252 22.9368C4.63377 24.0157 4.83797 25.0831 5.21643 26.0936C5.55045 26.9575 6.06128 27.742 6.71618 28.3969C7.37108 29.0518 8.15559 29.5626 9.01942 29.8966C10.03 30.275 11.0974 30.4792 12.1763 30.5006C13.5633 30.5637 14.0059 30.5791 17.5371 30.5791C21.0683 30.5791 21.5113 30.5644 22.898 30.5006C23.9768 30.4792 25.0443 30.275 26.0548 29.8966C26.9186 29.5626 27.7032 29.0518 28.3581 28.3969C29.013 27.742 29.5238 26.9575 29.8578 26.0936C30.2368 25.0832 30.441 24.0157 30.4617 22.9368C30.5249 21.5495 30.5393 21.1072 30.5393 17.5759C30.5393 14.0447 30.5245 13.6017 30.4617 12.2151C30.4405 11.1362 30.2363 10.0688 29.8578 9.05824C29.5238 8.19456 29.0131 7.41016 28.3584 6.75528C27.7037 6.1004 26.9194 5.58948 26.0559 5.25525C25.0454 4.8765 23.9779 4.67229 22.899 4.65133C21.5124 4.58785 21.0694 4.57275 17.5388 4.57275C14.0083 4.57275 13.5643 4.58751 12.177 4.65133" fill="white"/>
</g>
<defs>
<radialGradient id="paint0_radial_36_389" cx="0" cy="0" r="1" gradientUnits="userSpaceOnUse" gradientTransform="translate(2.26505 34.2334) scale(44.437)">
<stop offset="0.09" stop-color="#FA8F21"/>
<stop offset="0.78" stop-color="#D82D7E"/>
</radialGradient>
<radialGradient id="paint1_radial_36_389" cx="0" cy="0" r="1" gradientUnits="userSpaceOnUse" gradientTransform="translate(24.2433 33.1093) scale(39.105)">
<stop offset="0.64" stop-color="#8C3AAA" stop-opacity="0"/>
<stop offset="1" stop-color="#8C3AAA"/>
</radialGradient>
<clipPath id="clip0_36_389">
<rect width="35" height="35" fill="white"/>
</clipPath>
</defs>
</svg>
