<svg width="35" height="35" viewBox="0 0 35 35" fill="none" xmlns="http://www.w3.org/2000/svg">
<g clip-path="url(#clip0_36_276)">
<path d="M17.5 35C27.165 35 35 27.165 35 17.5C35 7.83502 27.165 0 17.5 0C7.83502 0 0 7.83502 0 17.5C0 27.165 7.83502 35 17.5 35Z" fill="#0177B5"/>
<path d="M25.1562 8.75H9.84375C9.55367 8.75 9.27547 8.86523 9.07035 9.07035C8.86523 9.27547 8.75 9.55367 8.75 9.84375V25.1562C8.75 25.4463 8.86523 25.7245 9.07035 25.9296C9.27547 26.1348 9.55367 26.25 9.84375 26.25H25.1562C25.4463 26.25 25.7245 26.1348 25.9296 25.9296C26.1348 25.7245 26.25 25.4463 26.25 25.1562V9.84375C26.25 9.55367 26.1348 9.27547 25.9296 9.07035C25.7245 8.86523 25.4463 8.75 25.1562 8.75ZM14.2188 23.5156H11.4844V15.3125H14.2188V23.5156ZM12.8516 14.2188C12.5271 14.2188 12.2099 14.1225 11.9401 13.9423C11.6703 13.762 11.46 13.5058 11.3358 13.206C11.2116 12.9062 11.1792 12.5763 11.2425 12.2581C11.3058 11.9398 11.462 11.6475 11.6915 11.418C11.9209 11.1886 12.2132 11.0323 12.5315 10.969C12.8497 10.9057 13.1796 10.9382 13.4794 11.0624C13.7792 11.1866 14.0354 11.3968 14.2157 11.6666C14.396 11.9364 14.4922 12.2536 14.4922 12.5781C14.4922 13.0132 14.3193 13.4305 14.0117 13.7382C13.704 14.0459 13.2867 14.2188 12.8516 14.2188ZM23.5156 23.5156H20.7812V18.0469C20.7812 17.593 20.1687 17.2266 19.4141 17.2266C18.3203 17.2266 18.0469 18.6867 18.0469 19.1406V23.5156H15.3125V15.3125H18.0469V17.2266C18.0469 15.8594 19.2719 15.3125 20.7812 15.3125C21.5065 15.3125 22.202 15.6006 22.7147 16.1134C23.2275 16.6262 23.5156 17.3217 23.5156 18.0469V23.5156Z" fill="white"/>
</g>
<defs>
<clipPath id="clip0_36_276">
<rect width="35" height="35" fill="white"/>
</clipPath>
</defs>
</svg>
