<svg width="35" height="35" viewBox="0 0 35 35" fill="none" xmlns="http://www.w3.org/2000/svg">
<g clip-path="url(#clip0_36_261)">
<path d="M17.5 35C27.165 35 35 27.165 35 17.5C35 7.83502 27.165 0 17.5 0C7.83502 0 0 7.83502 0 17.5C0 27.165 7.83502 35 17.5 35Z" fill="#2DAAE1"/>
<path d="M28.7208 10.5388C27.8953 10.9051 27.0087 11.1527 26.0766 11.264C27.0279 10.6943 27.7568 9.79156 28.1009 8.71714C27.1972 9.25389 26.2081 9.63177 25.1767 9.83435C24.3374 8.93968 23.1405 8.3811 21.8163 8.3811C19.2746 8.3811 17.2133 10.4416 17.2133 12.9848C17.2133 13.3451 17.2539 13.6966 17.3319 14.0342C13.5058 13.8419 10.1136 12.0091 7.84307 9.22419C7.4466 9.90435 7.21966 10.6951 7.21966 11.5389C7.21966 13.1359 8.0325 14.5449 9.26761 15.3703C8.53645 15.3476 7.82133 15.1503 7.18205 14.7947V14.8529C7.18205 17.0836 8.76869 18.9437 10.8749 19.3667C10.488 19.4727 10.0819 19.5281 9.66188 19.5281C9.36488 19.5281 9.07674 19.5 8.79525 19.447C9.3811 21.2754 11.0813 22.6063 13.0953 22.6439C11.5197 23.879 9.53436 24.6153 7.37808 24.6153C7.00669 24.6153 6.63964 24.5931 6.2793 24.5497C8.31696 25.8563 10.7364 26.619 13.3363 26.619C21.8038 26.619 26.4347 19.604 26.4347 13.5206C26.4347 13.3209 26.4303 13.1226 26.4207 12.9251C27.323 12.2725 28.1018 11.4645 28.7208 10.5388Z" fill="white"/>
</g>
<defs>
<clipPath id="clip0_36_261">
<rect width="35" height="35" fill="white"/>
</clipPath>
</defs>
</svg>
