<svg width="35" height="35" viewBox="0 0 35 35" fill="none" xmlns="http://www.w3.org/2000/svg">
<g clip-path="url(#clip0_36_272)">
<rect width="35" height="35" rx="17.5" fill="white"/>
<path d="M15.1266 21.0646L21.0678 17.5001L15.1266 13.9355V21.0646Z" fill="#FF0000"/>
<path d="M17.5 0C7.83562 0 0 7.83453 0 17.5C0 27.1655 7.83562 35 17.5 35C27.1644 35 35 27.1644 35 17.5C35 7.83562 27.1644 0 17.5 0ZM27.0025 18.2667C27.0025 19.9073 26.8122 21.548 26.8122 21.548C26.8122 21.548 26.6262 22.9458 26.0575 23.5594C25.3345 24.3666 24.5252 24.3709 24.1533 24.4191C21.4933 24.6225 17.5 24.6291 17.5 24.6291C17.5 24.6291 12.5584 24.5809 11.0381 24.4256C10.6148 24.3414 9.66656 24.3655 8.9425 23.5594C8.37266 22.9447 8.18781 21.548 8.18781 21.548C8.18781 21.548 7.9975 19.9084 7.9975 18.2667V16.7289C7.9975 15.0883 8.18781 13.4487 8.18781 13.4487C8.18781 13.4487 8.37375 12.0509 8.9425 11.4352C9.66547 10.6269 10.4748 10.6225 10.8467 10.5766C13.5056 10.3709 17.4956 10.3709 17.4956 10.3709H17.5044C17.5044 10.3709 21.4944 10.3709 24.1533 10.5766C24.5241 10.6225 25.3345 10.6269 26.0575 11.4341C26.6273 12.0498 26.8122 13.4477 26.8122 13.4477C26.8122 13.4477 27.0025 15.0883 27.0025 16.7289V18.2667Z" fill="#FF0000"/>
</g>
<defs>
<clipPath id="clip0_36_272">
<rect width="35" height="35" rx="17.5" fill="white"/>
</clipPath>
</defs>
</svg>
